<svg xmlns="http://www.w3.org/2000/svg" width="1280" height="640" viewBox="0 0 1280 640" role="img" aria-labelledby="title desc">
<title id="title">AI QA — Ship with proof.</title><desc id="desc">Requirements-driven software acceptance. Self-hosted. TypeScript and Python. 1.0 code candidate.</desc>
<defs><linearGradient id="bg" x2="1" y2="1"><stop stop-color="#071c22"/><stop offset="1" stop-color="#172240"/></linearGradient><pattern id="grid" width="48" height="48" patternUnits="userSpaceOnUse"><path d="M48 0H0V48" fill="none" stroke="#95dbc8" stroke-opacity=".055"/></pattern></defs>
<rect width="1280" height="640" fill="url(#bg)"/><rect width="1280" height="640" fill="url(#grid)"/>
<g font-family="Arial,Helvetica,sans-serif"><rect x="72" y="62" width="48" height="48" rx="14" fill="none" stroke="#b7f99d"/><path d="M85 91l9-18 9 18m-14-5h10m-2 7 9 8" fill="none" stroke="#b7f99d" stroke-width="2.5" stroke-linecap="round"/><text x="140" y="99" font-size="32" font-weight="700" fill="#f3fff9">AI QA</text>
<text x="1200" y="92" text-anchor="end" font-size="16" letter-spacing="2" fill="#b7f99d">1.0 CODE CANDIDATE</text>
<text x="65" y="283" font-size="115" font-weight="700" letter-spacing="-5" fill="#f3fff9">Ship with proof.</text>
<text x="74" y="353" font-size="28" fill="#c1d7d7">Read the spec. Run the product. Keep the evidence.</text>
<g fill="#0c252e" stroke="#3e686b"><rect x="74" y="407" width="300" height="66" rx="14"/><rect x="395" y="407" width="330" height="66" rx="14"/><rect x="746" y="407" width="456" height="66" rx="14"/></g>
<g fill="#dcf9e1" font-size="20"><text x="100" y="448">Approved requirements</text><text x="423" y="448">Browser · API · Code checks</text><text x="776" y="448">Traceable defects · Original-standard retest</text></g>
<path d="M74 536h1128" stroke="#749299" stroke-opacity=".4"/><text x="74" y="581" font-size="16" letter-spacing="2" fill="#9bb6bb">SELF-HOSTED · TYPESCRIPT + PYTHON</text><text x="1202" y="581" text-anchor="end" font-size="17" fill="#b7f99d">github.com/libowenzuishuai/ai-qa-platform</text></g></svg>
